<?xml version="1.0" standalone="no"?>
<!DOCTYPE svg PUBLIC "-//W3C//DTD SVG 20010904//EN"
 "http://www.w3.org/TR/2001/REC-SVG-20010904/DTD/svg10.dtd">
<svg version="1.0" xmlns="http://www.w3.org/2000/svg"
 width="696.000000pt" height="279.000000pt" viewBox="0 0 696.000000 279.000000"
 preserveAspectRatio="xMidYMid meet">

<g transform="translate(0.000000,279.000000) scale(0.100000,-0.100000)"
fill="#000000" stroke="none">
<path d="M2173 2371 c-107 -28 -213 -115 -258 -214 -33 -72 -46 -173 -35 -264
18 -139 92 -248 208 -305 65 -32 70 -33 193 -33 126 0 127 0 198 37 l71 36 0
-34 0 -34 55 0 55 0 0 210 0 210 -160 0 -160 0 0 -45 0 -45 105 0 105 0 0 -61
c0 -77 -21 -108 -96 -145 -110 -54 -264 -41 -355 29 -117 90 -149 285 -68 426
72 125 235 174 376 111 55 -24 89 -53 109 -92 13 -26 19 -28 74 -28 70 0 72 4
30 77 -34 60 -95 113 -165 144 -55 24 -221 36 -282 20z"/>
<path d="M1095 1979 c-82 -216 -151 -398 -153 -405 -3 -11 10 -14 52 -14 l54
0 33 85 32 85 201 0 202 0 31 -82 31 -83 57 -3 c51 -3 56 -1 51 15 -3 10 -73
191 -154 403 l-148 385 -70 3 -69 2 -150 -391z m310 43 c38 -100 66 -184 63
-187 -3 -3 -75 -4 -160 -3 l-156 3 44 115 c128 332 116 306 129 279 6 -13 42
-106 80 -207z"/>
<path d="M3207 2358 c-15 -38 -281 -729 -293 -761 l-13 -38 56 3 57 3 31 80
31 80 203 0 203 0 31 -82 31 -83 57 0 57 0 -47 123 c-26 67 -96 249 -156 405
l-108 282 -68 0 c-44 0 -69 -4 -72 -12z m157 -322 c42 -110 76 -201 76 -203 0
-2 -72 -3 -161 -3 -125 0 -160 3 -157 13 40 116 155 404 160 399 4 -4 41 -97
82 -206z"/>
<path d="M3920 1965 l0 -405 55 0 55 0 2 327 3 328 210 -328 210 -327 68 0 67
0 0 405 0 405 -50 0 -50 0 -2 -331 -3 -330 -211 328 -212 328 -71 3 -71 3 0
-406z"/>
<path d="M5163 2353 c-8 -21 -293 -762 -300 -781 -4 -10 8 -12 53 -10 l58 3
31 80 31 80 201 3 202 2 32 -85 32 -85 57 0 58 0 -156 405 -157 405 -68 0
c-55 0 -69 -3 -74 -17z m155 -303 c39 -102 73 -193 77 -202 7 -17 -5 -18 -154
-18 -89 0 -161 3 -161 7 0 21 156 411 161 405 4 -4 39 -90 77 -192z"/>
<path d="M940 815 l0 -405 275 0 275 0 0 45 0 45 -225 0 -225 0 0 130 0 130
190 0 190 0 0 50 0 50 -190 0 -190 0 0 130 0 130 225 0 225 0 0 50 0 50 -275
0 -275 0 0 -405z"/>
<path d="M1810 815 l0 -405 260 0 260 0 0 45 0 45 -207 2 -208 3 -3 358 -2
357 -50 0 -50 0 0 -405z"/>
<path d="M2400 1170 l0 -50 145 0 145 0 0 -355 0 -355 55 0 55 0 0 355 0 355
145 0 145 0 0 50 0 50 -345 0 -345 0 0 -50z"/>
<path d="M3340 815 l0 -405 55 0 55 0 0 150 0 150 104 0 103 0 90 -148 89
-147 62 -3 c34 -2 62 0 62 4 0 3 -41 72 -91 152 -85 135 -90 146 -73 159 10 7
22 13 27 13 4 0 28 13 52 30 30 20 52 47 71 85 23 49 26 64 22 126 -6 82 -36
134 -103 181 -67 46 -138 58 -342 58 l-183 0 0 -405z m441 273 c123 -72 97
-231 -45 -273 -31 -10 -93 -15 -168 -15 l-118 0 0 161 0 161 143 -4 c133 -3
145 -5 188 -30z"/>
<path d="M4493 1203 c-8 -21 -293 -762 -300 -781 -4 -10 8 -12 53 -10 l58 3
31 80 31 80 201 3 201 2 32 -85 33 -85 53 0 c30 0 54 3 54 8 0 4 -68 186 -152
404 l-153 398 -68 0 c-55 0 -69 -3 -74 -17z m159 -316 l76 -202 -155 -3 c-86
-1 -158 0 -160 2 -3 3 30 97 73 210 43 112 81 202 84 200 3 -3 39 -96 82 -207z"/>
<path d="M5210 815 l0 -405 55 0 55 0 2 310 3 309 118 -229 119 -230 61 0 62
0 120 233 120 232 3 -312 2 -313 50 0 50 0 0 405 0 405 -63 0 -63 0 -139 -269
c-77 -149 -142 -268 -145 -265 -3 3 -66 123 -140 267 l-135 262 -68 3 -67 3 0
-406z"/>
<path d="M6400 815 l0 -405 275 0 275 0 0 45 0 45 -225 0 -225 0 0 130 0 130
195 0 195 0 0 50 0 50 -195 0 -195 0 0 130 0 130 225 0 225 0 0 50 0 50 -275
0 -275 0 0 -405z"/>
</g>
</svg>
