<?xml version="1.0" standalone="no"?>
<!DOCTYPE svg PUBLIC "-//W3C//DTD SVG 20010904//EN"
 "http://www.w3.org/TR/2001/REC-SVG-20010904/DTD/svg10.dtd">
<svg version="1.0" xmlns="http://www.w3.org/2000/svg"
 width="696.000000pt" height="279.000000pt" viewBox="0 0 696.000000 279.000000"
 preserveAspectRatio="xMidYMid meet">

<g transform="translate(0.000000,279.000000) scale(0.100000,-0.100000)"
fill="#FFFFFF" stroke="none">
<path d="M2153 2366 c-241 -78 -350 -365 -233 -612 93 -194 352 -268 563 -160
l67 34 0 -34 0 -34 55 0 55 0 0 210 0 210 -165 0 -165 0 0 -45 0 -45 110 0
110 0 0 -65 c0 -61 -2 -66 -37 -100 -106 -103 -355 -94 -448 17 -59 70 -70
105 -70 223 0 118 11 153 70 223 108 129 378 110 451 -30 13 -26 19 -28 74
-28 70 0 72 4 31 76 -37 63 -89 109 -161 143 -46 21 -72 26 -160 28 -69 2
-120 -2 -147 -11z"/>
<path d="M10 1965 l0 -405 50 0 50 0 0 405 0 405 -50 0 -50 0 0 -405z"/>
<path d="M210 2010 l0 -360 210 0 210 0 0 -45 0 -45 95 0 95 0 0 405 0 405
-305 0 -305 0 0 -360z"/>
<path d="M1093 1973 c-84 -219 -153 -402 -153 -406 0 -4 24 -7 54 -7 l54 0 33
85 32 85 201 0 201 0 31 -82 31 -83 56 -3 c32 -2 57 1 57 5 -1 4 -70 186 -154
403 l-152 395 -70 3 -69 3 -152 -398z m302 73 c41 -109 75 -202 75 -207 0 -5
-67 -9 -155 -9 -119 0 -155 3 -155 13 0 7 34 100 75 207 41 107 75 197 75 199
0 16 19 -29 85 -203z"/>
<path d="M3180 2288 c-151 -390 -273 -705 -277 -715 -4 -10 10 -13 53 -13 l59
0 31 83 31 82 202 0 203 0 31 -82 31 -83 58 0 58 0 -13 33 c-7 17 -78 200
-157 405 l-143 372 -68 0 -68 0 -31 -82z m184 -252 c42 -110 76 -201 76 -203
0 -2 -72 -3 -161 -3 -125 0 -160 3 -157 13 50 142 155 404 160 399 4 -4 41
-97 82 -206z"/>
<path d="M3920 1965 l0 -405 55 0 55 0 2 326 3 327 210 -327 210 -326 68 0 67
0 0 405 0 405 -50 0 -50 0 -2 -330 -3 -330 -211 328 -210 327 -72 3 -72 3 0
-406z"/>
<path d="M5161 2348 c-15 -40 -293 -762 -298 -776 -4 -10 8 -12 53 -10 l58 3
31 80 31 80 201 3 201 2 32 -85 33 -85 58 0 58 0 -35 88 c-19 48 -89 230 -156
405 l-122 317 -68 0 c-62 0 -69 -2 -77 -22z m157 -298 c39 -102 73 -193 77
-202 7 -17 -5 -18 -154 -18 -89 0 -161 3 -161 7 0 20 156 411 161 405 4 -4 38
-90 77 -192z"/>
<path d="M10 810 l0 -410 50 0 50 0 0 410 0 410 -50 0 -50 0 0 -410z"/>
<path d="M497 1210 c83 -17 159 -72 182 -133 16 -42 13 -134 -6 -174 -9 -19
-33 -46 -54 -60 l-38 -25 51 -27 c64 -33 98 -90 98 -163 0 -111 -67 -189 -187
-217 -28 -7 4 -9 120 -10 l157 -1 0 410 0 410 -182 -1 c-126 -1 -170 -4 -141
-9z"/>
<path d="M932 813 l3 -408 280 0 280 0 0 50 0 50 -227 3 -228 2 0 125 0 125
193 2 192 3 0 45 0 45 -192 3 -193 2 0 130 0 130 230 0 230 0 0 50 0 50 -285
0 -285 0 2 -407z"/>
<path d="M1810 810 l0 -410 260 0 260 0 0 55 0 55 -210 0 -210 0 0 355 0 355
-50 0 -50 0 0 -410z"/>
<path d="M2400 1170 l0 -50 145 0 145 0 2 -357 3 -358 50 0 50 0 3 358 2 357
145 0 145 0 0 50 0 50 -345 0 -345 0 0 -50z"/>
<path d="M3342 813 l3 -408 50 0 50 0 3 153 3 152 103 0 103 0 94 -155 93
-155 57 0 c30 0 58 3 61 6 4 3 -36 73 -88 155 -52 83 -94 152 -94 155 0 3 17
12 37 20 98 41 153 124 153 228 -1 105 -53 181 -155 228 -46 21 -66 23 -263
26 l-212 4 2 -409z m439 275 c129 -76 92 -244 -61 -277 -28 -6 -100 -11 -160
-11 l-110 0 0 161 0 161 143 -3 c133 -4 145 -6 188 -31z"/>
<path d="M4493 1203 c-4 -10 -73 -191 -155 -403 -81 -211 -148 -388 -148 -392
0 -4 24 -8 54 -8 l54 0 34 88 34 87 200 3 200 2 35 -87 35 -88 52 -3 c38 -2
52 1 52 10 0 7 -68 192 -152 411 l-153 397 -68 0 c-55 0 -69 -3 -74 -17z m159
-316 l76 -202 -155 -3 c-86 -1 -158 -1 -160 2 -3 2 30 97 73 210 43 112 81
202 84 200 3 -3 39 -96 82 -207z"/>
<path d="M5212 813 l3 -408 50 0 50 0 3 315 3 315 118 -230 119 -230 64 -3 63
-3 120 233 120 233 3 -317 2 -318 50 0 50 0 0 410 0 410 -64 0 -64 0 -138
-267 c-75 -148 -138 -269 -139 -271 -2 -2 -65 118 -142 267 l-138 271 -68 0
-67 0 2 -407z"/>
<path d="M6392 813 l3 -408 280 0 280 0 0 50 0 50 -227 3 -228 2 0 125 0 125
195 0 195 0 0 50 0 50 -195 0 -195 0 0 130 0 130 230 0 230 0 0 50 0 50 -285
0 -285 0 2 -407z"/>
<path d="M210 984 l0 -136 138 4 c154 4 188 15 222 71 41 66 18 142 -53 176
-37 18 -62 21 -175 21 l-132 0 0 -136z"/>
<path d="M210 635 l0 -135 143 0 c164 0 206 9 241 51 57 68 38 155 -44 197
-40 20 -59 22 -192 22 l-148 0 0 -135z"/>
</g>
</svg>
